<?xml version="1.0" encoding="UTF-8"?>
<svg version="1.0" xmlns="http://www.w3.org/2000/svg"
 width="272pt" height="268pt" viewBox="0 0 272 268"
 preserveAspectRatio="xMidYMid meet">

<g transform="translate(0,268) scale(0.1,-0.1)"
fill="#000000" stroke="none">
<path d="M0 1340 l0 -1340 1360 0 1360 0 0 1340 0 1340 -1360 0 -1360 0 0
-1340z m2259 1066 c-10 -20 -20 -24 -87 -29 -151 -12 -212 -43 -463 -233 -313
-236 -307 -234 -734 -234 l-307 0 14 23 c14 20 25 22 107 25 l91 3 0 55 c0 45
4 59 25 79 22 23 32 25 115 25 l90 0 0 59 c0 52 3 62 26 80 23 18 41 21 120
21 l94 0 0 59 c0 98 -34 91 475 91 l445 0 -11 -24z m-1885 -780 c41 -17 48
-27 49 -73 1 -44 -38 -83 -84 -83 -27 0 -29 -2 -29 -40 0 -39 -1 -40 -35 -40
l-35 0 0 125 0 125 50 0 c28 0 66 -6 84 -14z m316 -232 c0 -2 -13 -4 -30 -4
-19 0 -33 7 -40 20 -8 15 -21 20 -51 20 -32 0 -42 -4 -46 -20 -4 -15 -14 -20
-39 -20 -40 0 -42 -8 34 145 l55 110 58 -124 c33 -68 59 -125 59 -127z m140
146 l0 -100 45 0 c41 0 45 -2 45 -25 0 -25 -1 -25 -80 -25 l-80 0 0 125 0 125
35 0 35 0 0 -100z m320 -20 c33 -66 60 -122 60 -125 0 -3 -15 -5 -34 -5 -25 0
-35 5 -39 20 -4 16 -14 20 -46 20 -30 0 -43 -5 -51 -20 -7 -13 -21 -20 -41
-20 -17 0 -29 4 -27 8 11 28 113 242 115 242 2 0 30 -54 63 -120z m190 -5 l0
-125 -30 0 -30 0 0 125 0 125 30 0 30 0 0 -125z m238 91 c3 -27 2 -28 -27 -23
-68 14 -82 -20 -20 -48 70 -32 89 -83 45 -124 -20 -19 -33 -22 -82 -19 -58 3
-59 4 -62 34 l-3 32 39 -11 c39 -10 72 -5 72 11 0 5 -22 19 -50 32 -56 26 -77
64 -58 104 14 32 44 46 98 43 42 -2 45 -4 48 -31z m342 18 c48 -20 70 -55 70
-116 0 -76 -50 -118 -140 -118 l-50 0 0 125 0 125 40 0 c22 0 58 -7 80 -16z
m320 1 c0 -12 -13 -15 -60 -15 l-60 0 0 -40 0 -40 50 0 c38 0 50 -4 50 -15 0
-11 -12 -15 -50 -15 l-50 0 0 -45 0 -45 60 0 c33 0 60 -4 60 -10 0 -6 -32 -10
-75 -10 l-75 0 0 125 0 125 75 0 c60 0 75 -3 75 -15z m204 9 c9 -3 16 -12 16
-20 0 -10 -6 -11 -28 -3 -42 14 -82 -3 -82 -36 0 -20 10 -30 53 -51 59 -30 67
-39 67 -73 0 -39 -27 -61 -76 -61 -52 0 -74 8 -74 26 0 11 4 12 19 4 29 -15
77 -12 95 6 9 8 16 17 16 19 0 21 -22 40 -65 60 -56 24 -72 48 -61 91 9 35 74
56 120 38z m-2044 -434 c0 -29 -2 -30 -45 -30 -38 0 -45 -3 -45 -20 0 -17 7
-20 40 -20 38 0 40 -2 40 -30 0 -28 -2 -30 -40 -30 l-40 0 0 -45 c0 -43 -1
-45 -30 -45 l-30 0 0 125 0 125 75 0 75 0 0 -30z m270 0 c0 -29 -1 -30 -50
-30 -43 0 -50 -3 -50 -20 0 -17 7 -20 45 -20 41 0 45 -2 45 -25 0 -23 -4 -25
-45 -25 -41 0 -45 -2 -45 -25 0 -24 3 -25 55 -25 52 0 55 -1 55 -25 0 -25 -1
-25 -85 -25 l-85 0 0 125 0 125 80 0 80 0 0 -30z m278 -7 c3 -32 3 -32 -27
-22 -21 7 -36 7 -51 -1 -27 -14 -19 -25 35 -49 124 -55 60 -173 -79 -147 -31
6 -36 11 -36 35 0 28 1 28 55 27 30 0 55 4 57 9 1 6 -17 19 -41 31 -75 35 -92
84 -46 130 22 21 33 25 78 22 51 -3 52 -4 55 -35z m292 7 c0 -28 -3 -30 -35
-30 l-35 0 0 -95 0 -95 -30 0 -30 0 0 95 0 95 -35 0 c-32 0 -35 2 -35 30 l0
30 100 0 100 0 0 -30z m150 -95 l0 -125 -30 0 -30 0 0 125 0 125 30 0 30 0 0
-125z m192 58 l30 -67 27 64 c26 62 30 65 65 68 l37 3 -63 -125 c-34 -69 -65
-126 -68 -126 -3 0 -33 56 -68 125 l-62 125 36 0 c34 0 36 -3 66 -67z m385
-181 c-20 -2 -35 2 -43 12 -15 22 -90 22 -102 0 -6 -10 -19 -14 -38 -12 l-30
3 59 125 59 125 63 -125 63 -125 -31 -3z m163 148 l0 -100 45 0 c41 0 45 -2
45 -25 0 -24 -2 -25 -75 -25 l-75 0 0 125 0 125 30 0 30 0 0 -100z m328 63 c3
-32 3 -33 -24 -22 -33 12 -77 4 -71 -14 2 -7 23 -23 48 -35 24 -13 47 -29 51
-35 10 -15 10 -69 0 -83 -19 -30 -84 -42 -139 -28 -17 5 -23 14 -23 34 0 29 0
29 55 23 45 -5 55 -3 55 10 0 8 -17 22 -39 30 -53 22 -71 42 -71 82 0 50 39
77 104 73 49 -3 51 -4 54 -35z m-198 -332 c16 -30 12 -36 -10 -16 -21 19 -26
35 -10 35 5 0 14 -9 20 -19z m-1910 -51 c0 -5 -18 -10 -40 -10 -36 0 -40 -2
-40 -25 0 -22 4 -25 35 -25 19 0 35 -4 35 -10 0 -5 -16 -10 -35 -10 -32 0 -35
-2 -35 -30 0 -29 2 -30 45 -30 25 0 45 -4 45 -10 0 -5 -25 -10 -55 -10 l-55 0
0 85 0 85 50 0 c28 0 50 -4 50 -10z m170 0 c0 -5 -11 -10 -25 -10 -24 0 -25
-2 -25 -75 0 -43 -4 -75 -10 -75 -6 0 -10 32 -10 75 l0 75 -30 0 c-16 0 -30 5
-30 10 0 6 28 10 65 10 37 0 65 -4 65 -10z m235 -15 c17 -16 25 -35 25 -60 0
-53 -36 -85 -95 -85 l-45 0 0 85 0 85 45 0 c35 0 52 -6 70 -25z m195 15 c0 -5
-20 -10 -45 -10 -41 0 -45 -2 -45 -25 0 -22 4 -25 35 -25 19 0 35 -4 35 -10 0
-5 -16 -10 -35 -10 -32 0 -35 -2 -35 -30 0 -29 2 -30 45 -30 25 0 45 -4 45
-10 0 -5 -25 -10 -55 -10 l-55 0 0 85 0 85 55 0 c30 0 55 -4 55 -10z m140 1
c0 -6 -15 -11 -32 -13 -48 -5 -49 -33 -1 -55 41 -19 54 -52 33 -79 -15 -18
-90 -19 -90 -1 0 7 14 12 37 12 52 0 57 29 9 49 -50 21 -66 65 -32 88 16 11
76 10 76 -1z m267 -8 c3 -8 -8 -10 -35 -6 -47 6 -82 -21 -82 -62 0 -41 35 -68
82 -62 27 4 38 2 35 -6 -2 -7 -22 -13 -45 -15 -55 -4 -92 30 -92 83 0 53 37
87 92 83 23 -2 43 -8 45 -15z m193 -8 c52 -55 15 -145 -60 -145 -58 0 -99 51
-86 105 16 65 101 88 146 40z m200 -35 c0 33 4 60 10 60 6 0 10 -36 10 -87
l-1 -88 -54 60 -55 60 0 -57 c0 -45 -3 -58 -15 -58 -12 0 -15 16 -15 88 l1 87
59 -63 60 -63 0 61z m217 43 c3 -8 -8 -10 -35 -6 -32 4 -44 1 -61 -16 -42 -42
-12 -111 49 -111 27 0 30 3 30 30 0 17 5 30 11 30 6 0 9 -16 7 -37 -3 -37 -4
-38 -45 -41 -56 -4 -93 29 -93 83 0 53 37 87 92 83 23 -2 43 -8 45 -15z m165
0 c22 -20 23 -46 2 -68 -16 -15 -16 -19 -1 -51 13 -26 14 -34 4 -34 -7 0 -21
16 -30 35 -9 19 -23 35 -32 35 -10 0 -15 -10 -15 -35 0 -24 -5 -35 -15 -35
-12 0 -15 16 -15 85 l0 85 42 0 c24 0 49 -7 60 -17z m178 7 c0 -5 -18 -10 -40
-10 -36 0 -40 -2 -40 -25 0 -22 4 -25 35 -25 19 0 35 -4 35 -10 0 -5 -16 -10
-35 -10 -32 0 -35 -2 -35 -30 0 -29 2 -30 45 -30 25 0 45 -4 45 -10 0 -5 -25
-10 -55 -10 l-55 0 0 85 0 85 50 0 c28 0 50 -4 50 -10z m150 1 c0 -6 -15 -11
-32 -13 -48 -5 -49 -33 -1 -55 69 -33 53 -97 -23 -91 -53 4 -55 25 -2 24 57
-1 65 27 14 48 -19 8 -39 23 -45 34 -14 26 -14 28 5 46 17 17 84 22 84 7z
m-1560 -360 c0 -11 -9 -16 -30 -17 -41 -2 -70 -30 -70 -68 0 -48 25 -76 66
-76 27 0 34 -4 34 -20 0 -16 -7 -20 -35 -20 -48 0 -91 24 -110 60 -19 36 -19
63 -1 99 19 37 39 52 79 60 42 9 67 3 67 -18z m954 19 c41 -15 33 -40 -11 -37
-52 3 -54 -21 -4 -52 54 -34 68 -66 43 -100 -16 -22 -27 -26 -73 -26 -48 0
-54 3 -57 21 -3 20 0 21 42 17 59 -7 61 11 5 50 -53 36 -67 68 -46 101 9 13
27 27 39 29 13 2 26 5 30 6 4 0 18 -3 32 -9z m-785 -109 c23 -52 41 -98 41
-103 0 -4 -13 -8 -30 -8 -16 0 -30 5 -30 10 0 14 -73 13 -87 -1 -6 -6 -17 -9
-25 -7 -12 2 -5 26 31 110 25 60 48 105 52 100 4 -4 26 -49 48 -101z m154 40
l47 -45 0 57 c0 50 2 57 20 57 19 0 20 -7 20 -111 l0 -111 -65 57 -65 57 0
-56 c0 -49 -2 -56 -20 -56 -19 0 -20 7 -20 111 0 127 -6 124 83 40z m267 13
c0 49 2 56 20 56 19 0 20 -7 20 -111 0 -127 6 -124 -82 -40 l-48 45 0 -57 c0
-50 -2 -57 -20 -57 -19 0 -20 7 -20 111 l0 111 65 -57 65 -57 0 56z m220 36
c0 -17 -7 -20 -40 -20 -36 0 -40 -2 -40 -25 0 -22 4 -25 35 -25 28 0 35 -4 35
-20 0 -16 -7 -20 -35 -20 -31 0 -35 -3 -35 -25 0 -22 4 -25 40 -25 33 0 40 -3
40 -20 0 -18 -7 -20 -70 -20 l-70 0 0 110 0 110 70 0 c63 0 70 -2 70 -20z"/>
<path d="M1400 2330 l0 -50 199 0 c187 0 200 1 225 21 15 12 51 34 79 50 l52
29 -277 0 -278 0 0 -50z"/>
<path d="M1160 2170 l0 -50 213 0 213 0 62 46 c34 25 62 48 62 50 0 2 -124 4
-275 4 l-275 0 0 -50z"/>
<path d="M940 2010 l0 -50 158 0 c177 0 249 13 342 60 33 17 60 32 60 35 0 3
-126 5 -280 5 l-280 0 0 -50z"/>
<path d="M310 1550 c0 -27 3 -31 23 -28 16 2 22 10 22 28 0 18 -6 26 -22 28
-20 3 -23 -1 -23 -28z"/>
<path d="M562 1500 c-7 -19 -6 -26 5 -28 21 -5 25 2 14 29 l-9 24 -10 -25z"/>
<path d="M1080 1511 c0 -5 -3 -16 -6 -25 -4 -11 0 -16 14 -16 15 0 19 5 15 20
-6 22 -23 38 -23 21z"/>
<path d="M1820 1509 l0 -102 46 6 c81 9 124 79 90 145 -20 39 -44 52 -95 52
l-41 0 0 -101z"/>
<path d="M1862 1085 c-10 -22 -9 -25 8 -25 21 0 26 16 12 38 -6 9 -12 6 -20
-13z"/>
<path d="M670 735 c0 -63 1 -65 25 -65 14 0 34 9 45 20 11 11 20 31 20 45 0
14 -9 34 -20 45 -11 11 -31 20 -45 20 -24 0 -25 -2 -25 -65z"/>
<path d="M1447 782 c-22 -25 -21 -75 1 -95 42 -38 102 -8 102 50 0 55 -67 85
-103 45z"/>
<path d="M2060 771 c0 -28 3 -31 31 -31 27 0 30 3 27 28 -2 21 -9 28 -30 30
-25 3 -28 0 -28 -27z"/>
<path d="M1000 353 c0 -6 -3 -18 -6 -27 -4 -12 0 -16 15 -16 12 0 21 4 21 8 0
13 -29 48 -30 35z"/>
</g>
</svg>
