<svg width="20" height="18" viewBox="0 0 20 18" fill="none" xmlns="http://www.w3.org/2000/svg">
<path d="M16.9231 7.46214C16.9231 7.66615 16.842 7.86181 16.6978 8.00607C16.5535 8.15033 16.3579 8.23137 16.1538 8.23137H12.3077C12.1037 8.23137 11.908 8.15033 11.7638 8.00607C11.6195 7.86181 11.5385 7.66615 11.5385 7.46214C11.5385 7.25813 11.6195 7.06247 11.7638 6.91821C11.908 6.77395 12.1037 6.69291 12.3077 6.69291H16.1538C16.3579 6.69291 16.5535 6.77395 16.6978 6.91821C16.842 7.06247 16.9231 7.25813 16.9231 7.46214ZM16.1538 9.76983H12.3077C12.1037 9.76983 11.908 9.85087 11.7638 9.99513C11.6195 10.1394 11.5385 10.335 11.5385 10.5391C11.5385 10.7431 11.6195 10.9387 11.7638 11.083C11.908 11.2273 12.1037 11.3083 12.3077 11.3083H16.1538C16.3579 11.3083 16.5535 11.2273 16.6978 11.083C16.842 10.9387 16.9231 10.7431 16.9231 10.5391C16.9231 10.335 16.842 10.1394 16.6978 9.99513C16.5535 9.85087 16.3579 9.76983 16.1538 9.76983ZM20 2.07752V15.9237C20 16.3317 19.8379 16.723 19.5494 17.0115C19.2609 17.3001 18.8696 17.4621 18.4615 17.4621H1.53846C1.13044 17.4621 0.739122 17.3001 0.450605 17.0115C0.162087 16.723 0 16.3317 0 15.9237V2.07752C0 1.6695 0.162087 1.27818 0.450605 0.989667C0.739122 0.70115 1.13044 0.539063 1.53846 0.539062H18.4615C18.8696 0.539063 19.2609 0.70115 19.5494 0.989667C19.8379 1.27818 20 1.6695 20 2.07752ZM18.4615 15.9237V2.07752H1.53846V15.9237H18.4615ZM10.7442 12.6544C10.7952 12.8521 10.7656 13.0619 10.662 13.2377C10.5583 13.4135 10.389 13.5409 10.1913 13.5919C9.99371 13.643 9.78391 13.6134 9.60809 13.5097C9.43227 13.406 9.30485 13.2367 9.25385 13.0391C9.00096 12.0525 7.99808 11.3083 6.92212 11.3083C5.84615 11.3083 4.84423 12.0525 4.59038 13.0391C4.53938 13.2367 4.41196 13.406 4.23614 13.5097C4.06033 13.6134 3.85052 13.643 3.65288 13.5919C3.45525 13.5409 3.28597 13.4135 3.18228 13.2377C3.07859 13.0619 3.049 12.8521 3.1 12.6544C3.34962 11.7254 3.93967 10.9242 4.75288 10.4102C4.32074 9.98063 4.02587 9.43241 3.90566 8.83505C3.78545 8.23769 3.84531 7.61808 4.07766 7.05478C4.31001 6.49148 4.70437 6.00985 5.21077 5.67094C5.71716 5.33204 6.31278 5.15112 6.92212 5.15112C7.53145 5.15112 8.12707 5.33204 8.63346 5.67094C9.13986 6.00985 9.53422 6.49148 9.76657 7.05478C9.99892 7.61808 10.0588 8.23769 9.93857 8.83505C9.81836 9.43241 9.52349 9.98063 9.09135 10.4102C9.90545 10.9235 10.496 11.7249 10.7452 12.6544H10.7442ZM6.92308 9.76983C7.22736 9.76983 7.5248 9.6796 7.7778 9.51055C8.0308 9.34151 8.22799 9.10123 8.34443 8.82011C8.46087 8.539 8.49134 8.22966 8.43198 7.93123C8.37262 7.6328 8.22609 7.35867 8.01093 7.14351C7.79578 6.92836 7.52165 6.78183 7.22322 6.72247C6.92478 6.66311 6.61545 6.69357 6.33433 6.81002C6.05322 6.92646 5.81294 7.12365 5.64389 7.37665C5.47484 7.62965 5.38462 7.92709 5.38462 8.23137C5.38462 8.6394 5.5467 9.03071 5.83522 9.31923C6.12374 9.60774 6.51505 9.76983 6.92308 9.76983Z" fill="#3F4660"/>
</svg>
